<?xml version="1.0" standalone="no"?>
<!DOCTYPE svg PUBLIC "-//W3C//DTD SVG 20010904//EN"
 "http://www.w3.org/TR/2001/REC-SVG-20010904/DTD/svg10.dtd">
<svg version="1.0" xmlns="http://www.w3.org/2000/svg"
 width="1769.000000pt" height="1769.000000pt" viewBox="0 0 1769.000000 1769.000000"
 preserveAspectRatio="xMidYMid meet">
<metadata>
Created by potrace 1.14, written by Peter Selinger 2001-2017
</metadata>
<g transform="translate(0.000000,1769.000000) scale(0.100000,-0.100000)"
fill="#000000" stroke="none">
<path d="M17078 11776 c-1 -2 -46 -6 -98 -10 -434 -27 -710 -286 -826 -776
-58 -245 -63 -322 -69 -1020 -3 -289 -7 -550 -9 -580 -2 -30 -7 -122 -11 -205
-4 -82 -8 -152 -10 -155 -1 -3 -6 -51 -10 -108 -3 -56 -8 -112 -10 -125 -2
-12 -7 -56 -10 -97 -8 -98 -10 -113 -30 -295 -8 -63 -45 -355 -49 -384 -3 -14
-8 -51 -11 -81 -4 -30 -9 -62 -10 -70 -1 -8 -8 -54 -15 -103 -13 -86 -13 -88
10 -112 23 -24 27 -25 166 -25 101 0 144 4 152 13 6 6 20 40 31 75 12 35 33
92 46 128 13 35 24 65 24 67 0 3 5 16 35 100 14 37 25 68 25 70 0 1 5 16 11
32 7 17 31 82 55 145 23 63 48 129 55 145 7 17 14 35 16 40 7 28 77 202 86
213 6 6 8 12 5 12 -3 0 2 19 12 43 18 41 32 77 36 87 1 3 7 18 13 33 7 16 12
33 12 38 0 5 5 9 10 9 6 0 9 3 8 8 -2 4 5 26 15 50 9 23 17 44 17 47 1 2 17
40 36 82 19 43 38 87 43 98 5 11 20 45 34 75 32 71 41 93 39 103 -1 4 2 7 8 7
5 0 10 4 10 10 0 5 19 49 42 97 23 49 42 93 43 98 0 6 4 16 9 24 25 39 104
211 98 211 -4 0 -2 4 3 8 18 12 351 689 347 705 -1 4 3 7 8 7 6 0 10 5 10 11
0 5 8 29 18 52 10 23 26 61 35 85 9 23 24 59 33 80 8 21 16 44 18 52 2 8 6 23
9 33 27 70 66 215 60 221 -3 2 -1 11 3 18 9 13 9 15 19 93 25 203 -14 344
-129 459 -92 93 -204 139 -365 152 -42 3 -81 7 -88 9 -6 2 -13 2 -15 1z"/>
<path d="M1292 11654 c-13 -9 -16 -36 -15 -144 0 -126 1 -134 22 -152 14 -10
41 -18 65 -19 155 -4 186 -14 211 -70 13 -29 18 -63 18 -127 -1 -148 -24 -258
-214 -1008 -83 -330 -152 -606 -154 -614 -2 -8 -83 -332 -180 -720 -97 -388
-178 -712 -180 -720 -2 -8 -15 -62 -30 -120 -15 -58 -29 -113 -31 -123 -2 -10
-6 -27 -9 -37 -3 -10 -8 -27 -10 -37 -3 -10 -9 -38 -16 -63 -6 -25 -12 -52
-14 -60 -37 -164 -206 -806 -235 -891 -62 -187 -123 -292 -202 -349 -52 -38
-101 -51 -197 -52 -115 -2 -111 4 -111 -153 0 -125 1 -136 22 -155 22 -20 22
-20 2138 -20 2004 0 2118 1 2132 18 13 15 49 115 54 152 2 8 10 35 19 60 9 25
18 52 20 60 2 8 13 40 23 72 11 31 18 59 15 62 -4 3 -2 6 4 6 5 0 10 6 10 13
0 6 19 71 42 142 24 72 44 137 46 145 2 8 13 40 23 72 11 31 18 59 15 62 -4 3
0 6 7 6 7 0 10 3 7 7 -4 3 -2 12 4 20 6 7 9 13 6 13 -3 0 2 24 13 54 10 30 16
57 13 60 -4 3 -1 6 5 6 7 0 11 3 11 8 -1 4 0 10 1 15 1 4 3 10 4 15 14 52 32
110 53 167 14 39 27 81 29 94 3 13 9 32 14 41 5 9 11 28 14 41 2 13 13 49 24
79 11 30 20 58 20 63 0 4 22 71 47 150 26 78 49 153 51 167 3 13 9 29 13 35 5
5 8 17 8 25 1 8 8 32 17 52 15 36 15 37 -10 67 l-26 31 -128 0 c-99 0 -130 -3
-139 -14 -7 -8 -37 -63 -68 -123 -173 -337 -363 -610 -583 -834 -349 -356
-725 -547 -1210 -614 -77 -11 -342 -13 -415 -4 -101 13 -223 55 -277 94 -50
36 -108 124 -108 162 0 12 -4 24 -9 28 -11 6 -8 279 4 335 3 19 8 44 10 55 2
11 16 65 31 120 14 55 27 107 29 115 2 8 11 44 20 80 9 36 19 74 22 85 8 38
11 50 13 53 3 2 2 1 15 57 10 47 12 54 15 58 1 1 3 9 5 17 4 17 33 135 40 163
5 17 13 47 20 77 2 8 4 15 5 15 1 0 3 9 5 20 2 11 18 74 35 140 38 145 41 154
45 181 2 12 8 31 15 44 6 12 9 24 7 27 -3 2 1 21 9 40 9 19 13 38 10 40 -3 3
-1 13 4 23 5 9 11 28 14 41 7 38 37 152 43 169 7 18 10 27 16 60 3 14 12 49
20 78 9 28 13 52 10 52 -3 0 -1 6 4 13 6 6 11 19 11 27 1 8 8 40 17 70 21 71
20 68 30 115 11 50 10 47 18 65 4 8 11 33 16 55 5 22 23 94 41 160 18 66 34
131 36 144 3 13 10 33 15 43 6 11 8 22 5 25 -3 4 -1 11 4 18 5 7 12 25 14 41
2 16 6 36 9 44 6 14 37 129 52 190 2 8 4 17 5 20 1 3 3 10 5 15 1 6 3 12 4 15
2 3 4 12 6 20 1 8 11 44 20 80 9 36 18 70 20 75 1 6 5 17 8 25 7 19 67 238 71
265 2 11 23 88 46 170 23 83 43 157 45 165 8 37 79 239 96 271 10 20 15 39 12
43 -4 3 -1 6 5 6 7 0 12 5 12 10 0 15 50 90 81 122 29 29 91 67 124 75 11 3
60 7 110 9 53 2 94 9 102 16 7 8 12 47 13 103 2 145 1 159 -20 185 l-19 25
-1067 0 c-779 0 -1071 -3 -1082 -11z"/>
<path d="M6003 11652 c-9 -10 -13 -48 -13 -141 0 -163 3 -167 135 -174 151 -8
177 -33 181 -177 3 -131 -31 -301 -192 -943 -80 -320 -147 -589 -149 -597 -2
-8 -18 -71 -35 -140 -18 -69 -34 -132 -35 -140 -2 -8 -36 -141 -75 -295 -39
-154 -176 -701 -306 -1217 -129 -515 -251 -987 -270 -1050 -64 -201 -134 -325
-216 -381 -54 -36 -99 -47 -203 -51 -62 -2 -89 -7 -96 -17 -5 -8 -8 -69 -8
-137 1 -105 4 -126 21 -147 l19 -25 2124 0 2124 0 16 30 c8 16 15 32 15 35 -1
8 90 296 100 320 5 11 12 31 14 45 3 14 19 66 36 115 17 50 32 99 35 110 2 11
16 54 30 95 15 41 28 82 30 91 2 9 11 39 20 65 9 27 18 54 19 59 1 6 9 33 18
60 9 28 40 124 68 215 29 91 57 179 63 195 7 17 12 32 13 35 0 3 7 25 14 50 7
25 14 47 15 50 0 3 9 30 20 60 10 30 20 60 21 65 1 6 9 33 19 60 9 28 18 57
20 65 2 8 8 27 14 43 6 15 8 27 5 27 -4 0 -2 6 4 13 9 11 31 80 37 117 1 8 -9
25 -22 38 -22 20 -33 22 -143 22 -65 0 -126 -3 -135 -6 -9 -4 -37 -48 -62 -98
-180 -359 -376 -640 -613 -877 -195 -196 -341 -305 -547 -409 -271 -136 -529
-198 -848 -205 -305 -6 -488 52 -567 180 -42 68 -52 117 -52 255 0 124 11 213
40 315 2 6 5 20 8 33 3 13 8 32 11 42 3 10 8 29 11 42 9 39 12 53 14 53 1 0 3
9 5 20 2 11 8 35 14 54 6 19 8 38 5 42 -3 5 -1 9 4 9 5 0 9 6 9 13 0 6 13 59
28 117 15 58 28 113 30 123 2 10 13 51 24 91 11 41 23 88 26 107 3 18 8 36 11
41 3 4 7 17 10 28 2 11 6 29 9 40 3 11 7 29 10 40 3 11 7 29 10 40 3 11 8 30
11 43 3 12 7 30 7 40 1 9 4 17 7 17 4 0 7 6 7 13 0 6 15 68 32 137 18 69 35
132 36 140 2 8 11 37 19 65 8 27 13 51 11 53 -2 3 0 12 5 22 5 9 11 28 14 41
3 13 14 58 26 99 11 41 23 86 26 100 3 14 12 48 20 76 8 28 17 61 19 73 11 48
14 58 31 116 9 33 18 69 20 80 1 11 7 34 14 50 6 17 11 30 10 30 -1 0 1 12 5
26 3 14 8 34 10 45 2 10 4 20 5 22 2 1 4 7 5 12 1 6 3 11 5 13 1 1 3 11 5 22
2 11 20 81 40 155 21 74 39 142 40 150 1 8 5 22 8 30 3 8 20 69 38 135 17 66
40 152 51 190 11 39 22 79 24 90 2 11 17 67 33 125 41 148 83 303 85 315 1 6
10 37 20 70 10 33 19 65 21 70 1 6 4 17 8 25 3 8 18 51 33 95 29 84 100 228
115 233 5 2 9 8 9 14 0 17 87 89 114 95 6 1 22 5 36 8 21 6 93 11 187 14 31 1
36 27 36 165 -1 107 -3 120 -22 140 l-22 21 -1066 0 c-879 0 -1069 -2 -1080
-13z"/>
<path d="M10719 11649 c-14 -14 -17 -37 -17 -139 1 -110 3 -125 22 -146 18
-21 31 -24 101 -26 156 -4 187 -30 193 -167 3 -69 -15 -244 -32 -306 -2 -5 -6
-28 -11 -50 -7 -35 -171 -693 -362 -1450 -36 -143 -71 -285 -78 -315 -24 -105
-526 -2096 -551 -2185 -14 -49 -42 -133 -61 -185 -93 -250 -184 -329 -378
-332 -110 -2 -111 -3 -110 -162 1 -124 2 -128 25 -147 24 -18 62 -19 1111 -19
l1087 0 6 26 c4 14 6 80 5 145 -2 157 -1 156 -168 157 -154 0 -188 14 -212 88
-20 61 -15 171 12 319 7 33 13 69 15 80 1 11 3 20 4 20 1 0 3 8 5 19 2 10 9
39 15 65 6 25 12 55 15 66 2 11 14 54 25 95 11 41 23 86 26 100 3 14 8 34 11
45 8 24 13 44 17 65 2 8 9 35 16 60 8 25 14 52 15 60 1 8 5 24 10 34 5 10 9
31 11 45 1 14 3 27 4 29 1 1 3 5 4 10 2 4 8 27 15 52 7 25 14 52 16 60 2 8 13
53 25 100 12 47 23 92 25 100 2 8 8 33 14 55 6 22 11 43 11 47 1 4 6 22 11 40
6 18 12 41 14 50 2 9 15 61 30 115 15 54 28 105 30 113 26 118 28 120 95 100
39 -12 111 -29 150 -36 14 -2 39 -6 55 -10 17 -3 44 -7 60 -9 17 -3 44 -7 60
-10 37 -6 116 -14 210 -21 98 -8 475 -7 563 0 140 12 251 26 332 39 14 3 48 8
75 12 28 4 53 9 56 11 3 2 21 6 40 9 19 3 52 11 74 17 22 6 47 12 55 14 8 1
25 5 38 8 12 3 31 8 41 10 11 3 28 9 39 15 11 6 22 8 25 5 3 -3 19 2 36 10 17
9 32 16 33 15 6 -4 83 24 96 34 6 5 12 7 12 4 0 -6 39 9 117 44 23 10 47 19
52 19 6 0 11 5 11 12 0 6 3 8 6 5 7 -7 64 21 75 36 3 5 10 9 15 9 36 1 294
159 294 180 0 4 4 7 9 5 11 -3 135 97 162 132 11 14 23 25 25 24 2 -2 13 6 24
17 11 11 18 20 16 20 -3 0 20 23 50 51 30 29 54 56 54 62 0 5 8 17 18 26 21
19 58 75 51 78 -2 2 6 10 19 18 12 9 20 21 17 26 -4 5 -2 9 3 9 12 0 123 215
115 223 -3 4 -2 7 4 7 9 0 35 68 30 81 -1 3 3 12 10 20 9 11 27 63 39 114 32
135 41 193 52 318 12 131 6 331 -13 427 -2 14 -7 39 -11 55 -11 58 -64 224
-74 230 -5 3 -7 12 -3 20 3 8 1 15 -5 15 -5 0 -13 12 -17 27 -3 15 -15 39 -26
54 -10 15 -19 30 -19 33 0 20 -114 169 -184 239 -161 164 -340 276 -590 368
-73 27 -264 81 -331 94 -75 14 -286 44 -345 50 -36 3 -83 8 -105 11 -22 3
-625 6 -1340 8 -1209 2 -1300 1 -1316 -15z m2366 -423 c43 -7 62 -12 140 -37
39 -13 72 -23 75 -23 30 -4 174 -108 223 -161 102 -110 183 -309 205 -504 9
-86 9 -304 -1 -406 -24 -244 -119 -518 -250 -718 -72 -110 -83 -124 -202 -242
-288 -288 -688 -436 -1164 -430 -131 2 -289 13 -303 21 -8 5 -6 19 12 84 7 25
13 52 15 60 2 8 11 44 20 80 9 36 19 72 20 80 2 8 4 16 4 18 1 1 1 4 2 7 0 2
5 19 10 37 12 38 58 222 65 255 2 12 9 34 14 48 5 14 7 25 4 25 -4 0 -1 7 6
15 7 8 10 15 6 15 -3 0 -1 11 4 25 5 14 12 36 14 48 3 12 8 33 11 47 3 14 8
32 10 40 2 8 4 15 5 15 1 0 3 9 5 20 2 11 10 45 19 75 8 30 17 66 20 80 3 14
9 40 15 58 5 17 7 32 4 32 -3 0 -1 6 5 13 6 6 14 30 18 52 11 53 11 55 14 58
1 1 4 11 6 22 2 11 8 38 14 60 6 22 13 49 15 60 2 11 4 21 5 23 2 1 4 7 5 12
1 6 3 11 5 13 1 1 3 9 5 18 1 8 13 53 25 100 12 46 23 91 26 99 2 8 12 47 23
87 10 40 16 74 13 77 -3 4 0 6 6 6 6 0 9 9 7 20 -2 11 0 20 6 20 5 0 8 3 7 8
-1 6 5 39 17 92 1 3 7 25 14 50 7 25 15 52 17 60 1 8 15 56 29 105 14 50 28
101 31 115 17 87 37 138 53 135 9 -1 26 2 39 6 24 9 59 15 162 25 36 3 67 8
68 9 5 5 322 -4 357 -9z"/>
<path d="M15742 7279 c-90 -20 -138 -41 -222 -95 -206 -131 -322 -351 -315
-596 8 -262 153 -486 396 -606 25 -13 52 -24 60 -25 8 -2 20 -6 27 -11 7 -4
23 -10 35 -11 12 -2 40 -7 62 -11 51 -10 209 -9 255 0 57 12 65 14 68 16 1 2
7 4 12 5 6 1 12 4 15 5 3 1 8 3 13 5 4 1 20 7 35 13 16 7 32 12 37 12 5 0 14
8 19 18 6 9 11 14 11 9 0 -7 33 11 69 38 38 29 150 149 145 156 -3 5 -1 9 4 9
7 0 65 94 67 110 1 3 6 21 13 41 26 76 35 132 35 224 1 68 -3 100 -17 170 -8
43 -57 151 -92 205 -109 168 -247 270 -428 317 -83 21 -215 22 -304 2z"/>
</g>
</svg>
