<?xml version="1.0" standalone="no"?>
<!DOCTYPE svg PUBLIC "-//W3C//DTD SVG 20010904//EN"
 "http://www.w3.org/TR/2001/REC-SVG-20010904/DTD/svg10.dtd">
<svg version="1.0" xmlns="http://www.w3.org/2000/svg"
 width="260.000000pt" height="260.000000pt" viewBox="0 0 260.000000 260.000000"
 preserveAspectRatio="xMidYMid meet">
<metadata>
Created by potrace 1.14, written by Peter Selinger 2001-2017
</metadata>
<g transform="translate(0.000000,260.000000) scale(0.100000,-0.100000)"
fill="#000000" stroke="none">
<path d="M1725 1797 c-48 -15 -89 -51 -104 -91 l-15 -36 -113 0 c-97 0 -115
-2 -120 -17 -4 -9 -2 -18 4 -20 5 -2 18 -9 27 -16 15 -11 10 -37 -54 -291 -39
-153 -75 -287 -81 -298 -6 -10 -21 -23 -35 -28 -28 -11 -31 -28 -8 -37 13 -5
190 -8 256 -4 23 1 16 35 -8 40 -27 5 -33 18 -24 55 33 138 54 205 61 200 5
-3 41 -7 79 -9 119 -6 231 32 285 96 100 119 50 282 -95 315 -19 4 -38 9 -42
10 -5 1 -31 2 -59 3 -47 1 -50 2 -43 24 17 56 76 90 155 90 62 0 172 -32 235
-69 33 -19 43 -21 47 -10 5 14 -34 38 -117 71 -72 28 -180 39 -231 22z m-23
-196 c47 -24 64 -91 42 -170 -26 -89 -103 -137 -211 -132 -21 1 -21 2 19 153
37 144 47 174 49 152 4 -50 30 -153 40 -160 12 -7 11 3 -1 46 -6 19 -13 54
-16 77 -4 37 -3 42 18 45 28 5 27 5 60 -11z"/>
<path d="M2105 1751 c-3 -11 -8 -29 -10 -40 -2 -12 -20 -85 -40 -163 -100
-392 -99 -384 -72 -385 7 0 39 -4 73 -7 l61 -6 17 62 c9 35 18 72 21 83 2 11
28 116 57 233 37 144 51 216 43 222 -5 4 -40 11 -77 14 -60 5 -67 4 -73 -13z"/>
<path d="M190 1651 c0 -11 9 -23 20 -26 17 -5 20 -13 17 -43 -8 -61 -135 -552
-148 -568 -6 -8 -20 -14 -30 -14 -21 0 -27 -39 -6 -41 96 -6 513 -2 522 6 10
8 85 228 85 248 0 4 -9 7 -20 7 -12 0 -26 -12 -36 -32 -51 -100 -128 -157
-223 -165 -50 -5 -62 -2 -78 14 -24 24 -23 38 7 153 96 368 114 429 131 431 5
1 15 2 22 3 6 0 12 10 12 21 0 19 -8 20 -137 23 -131 2 -138 2 -138 -17z"/>
<path d="M787 1663 c-12 -11 -7 -33 7 -33 37 0 34 -25 -35 -303 -38 -154 -74
-288 -80 -298 -5 -11 -21 -24 -35 -29 -26 -10 -31 -24 -12 -36 18 -11 519 -10
528 1 9 11 80 226 80 243 0 27 -31 9 -56 -30 -61 -99 -148 -158 -232 -158 -60
0 -82 14 -82 51 0 40 121 509 139 538 4 7 17 14 27 15 11 2 20 12 22 24 3 22
1 22 -131 22 -73 0 -137 -3 -140 -7z"/>
<path d="M2240 1567 c0 -7 14 -26 31 -43 52 -48 146 -170 184 -238 78 -140
101 -269 62 -347 -29 -59 -72 -79 -154 -74 -61 4 -167 39 -226 76 l-29 17 23
16 c26 18 23 25 -17 32 -73 11 -72 11 -79 69 -4 30 -11 58 -16 61 -4 2 -25
-20 -45 -51 l-37 -55 -63 0 c-35 0 -64 -3 -64 -6 0 -3 14 -25 31 -49 l31 -43
-21 -56 c-11 -31 -17 -56 -12 -56 4 0 30 7 57 15 l48 14 45 -34 c24 -19 46
-33 49 -31 2 2 5 32 6 65 2 34 5 63 7 65 2 2 33 -11 69 -28 152 -74 287 -92
365 -48 65 37 89 81 92 171 5 158 -84 334 -262 518 -49 52 -75 65 -75 40z"/>
</g>
</svg>
